# xmcd
#
# Track frame offsets:
#	150
#	13477
#	23947
#	36598
#	47174
#	61335
#	70980
#	86701
#	97056
#	107993
#	117862
#	127027
#	140450
#	153281
#	165197
#	175203
#	187611
#	201941
#	212402
#	221846
#	235835
#	247628
#	261852
#	274865
#	287222
#	298172
#	311371
#	324059
#	332950
#	343922
#
# Disc length: 4766
#
# Revision: 2
# Processed by: cddbd v1.5.1PL0 Copyright (c) Steve Scherf et al.
# Submitted via: EasyCDDAExtractor 5.0.7
# Normalized: r1:DSETVAR1
#
DISCID=c9129c1e
DTITLE=Various Artist - Modern Vocal Groups Vol 1
DYEAR=1900
DGENRE=Blues
TTITLE0=Robins - I Made A Vow
TTITLE1=Bobby Nunn and The Robins - That's What The Good Book Says
TTITLE2=Mickey Champion and The Nic Nacs - Found Me A Sugar Daddy
TTITLE3=Drifters - Sacrolliac Swing
TTITLE4=Drifters - The World Is Changing
TTITLE5=Five Hearts - Let Me Be Your Man
TTITLE6=Five Hearts - Please Please Baby
TTITLE7=Five Hearts - The Fine One
TTITLE8=Flairs - I Had A Love
TTITLE9=Flairs - Tell Me You Love Me
TTITLE10=Arthur Lee Maye and The Crowns - I Wanna Love
TTITLE11=Arthur Lee Maye and The Crowns - Set My Heart Free
TTITLE12=Oscar McLollie and His Honey Jumpers - Be Cool My Heart
TTITLE13=Oscar McLollie and His Honey Jumpers - Love Me Tonight
TTITLE14=Meadowlarks - Love Only You
TTITLE15=Meadowlarks - Real Pretty Mama
TTITLE16=Native Boys - It Won't Take Long
TTITLE17=Native Boys - Native Girl
TTITLE18=Original Jubalaires - Dreaming Of The Ladies In The Moon
TTITLE19=Original Jubalaires - Waiting All My Life For You
TTITLE20=Original Jubalaires - You Better Stop
TTITLE21=Oscar McLollie and His Honey Jumpers - Falling In Love With You
TTITLE22=Marvin Phillips and The Barons - Forever
TTITLE23=Robins - Double Crossin' Baby
TTITLE24=Drifters - Yodee Yakee
TTITLE25=Eagleaires - Eagleaires
TTITLE26=Swinging Hearts - Swinging Hearts
TTITLE27=Trojans - I Wanna Make Love To You
TTITLE28=Valadiers - Greetings (This Is Uncle Sam)
TTITLE29=Al Campbell and Henry Burr - If I'm Not At The Roll Call
EXTD=
EXTT0=
EXTT1=
EXTT2=
EXTT3=
EXTT4=
EXTT5=
EXTT6=
EXTT7=
EXTT8=
EXTT9=
EXTT10=
EXTT11=
EXTT12=
EXTT13=
EXTT14=
EXTT15=
EXTT16=
EXTT17=
EXTT18=
EXTT19=
EXTT20=
EXTT21=
EXTT22=
EXTT23=
EXTT24=
EXTT25=
EXTT26=
EXTT27=
EXTT28=
EXTT29=
PLAYORDER=
